<?xml version="1.0" standalone="no"?>
<!DOCTYPE svg PUBLIC "-//W3C//DTD SVG 20010904//EN"
 "http://www.w3.org/TR/2001/REC-SVG-20010904/DTD/svg10.dtd">
<svg version="1.0" xmlns="http://www.w3.org/2000/svg"
 width="360.000000pt" height="360.000000pt" viewBox="0 0 360.000000 360.000000"
 preserveAspectRatio="xMidYMid meet">
<metadata>
Created by potrace 1.14, written by Peter Selinger 2001-2017
</metadata>
<g transform="translate(0.000000,360.000000) scale(0.100000,-0.100000)"
fill="#000000" stroke="none">
<path d="M1688 3147 c-150 -56 -283 -195 -383 -402 -64 -131 -73 -160 -50
-168 8 -4 80 -16 158 -28 255 -39 671 -29 907 22 60 13 61 6 -10 155 -92 195
-209 333 -335 395 -59 29 -79 34 -159 36 -59 2 -104 -1 -128 -10z"/>
<path d="M1355 3091 c-112 -39 -246 -109 -343 -179 -91 -64 -225 -190 -217
-203 12 -18 335 -114 345 -101 4 4 15 30 25 57 49 136 158 314 246 403 29 28
46 52 38 51 -8 0 -50 -13 -94 -28z"/>
<path d="M2202 3062 c93 -101 177 -243 251 -424 13 -31 19 -36 39 -31 53 12
227 64 259 76 19 8 43 17 53 21 17 6 13 13 -35 62 -120 122 -299 239 -462 302
-56 22 -115 43 -131 46 -28 7 -26 4 26 -52z"/>
<path d="M2799 2605 c-47 -17 -130 -44 -185 -60 -54 -16 -103 -31 -107 -35 -8
-7 30 -178 42 -192 8 -8 521 -15 521 -7 0 30 -97 209 -154 284 l-31 41 -86
-31z"/>
<path d="M667 2561 c-63 -95 -140 -251 -125 -251 68 -2 513 1 515 4 5 5 45
160 47 180 1 15 -21 25 -129 56 -72 21 -154 48 -183 59 -29 12 -59 21 -66 21
-7 0 -34 -31 -59 -69z"/>
<path d="M1187 2438 c-9 -29 -19 -70 -22 -90 l-7 -38 647 0 647 0 -6 23 c-3
12 -14 53 -23 90 l-17 69 -30 -7 c-337 -70 -806 -70 -1148 1 -25 5 -27 2 -41
-48z"/>
<path d="M280 1795 l0 -465 1570 0 1570 0 0 465 0 465 -1570 0 -1570 0 0 -465z
m410 39 l54 -197 51 194 52 194 45 3 45 3 32 -128 c47 -183 64 -243 67 -240 2
2 28 84 57 182 l54 180 42 3 c22 2 41 0 41 -4 0 -5 -22 -78 -49 -163 -27 -86
-61 -196 -76 -244 l-27 -88 -45 3 -46 3 -44 160 c-23 88 -43 168 -43 178 0 9
-4 17 -8 17 -5 0 -26 -66 -47 -147 -21 -82 -42 -163 -47 -180 -8 -31 -12 -33
-53 -33 -40 0 -44 2 -54 33 -13 42 -131 427 -137 450 -5 14 1 17 38 17 l44 0
54 -196z m938 89 c17 -60 41 -146 54 -192 l22 -84 12 39 c7 21 24 84 39 139
15 55 33 124 42 153 l14 52 44 0 43 0 21 -77 c11 -43 34 -127 50 -188 27 -103
29 -108 40 -82 6 16 11 32 11 37 0 5 11 44 24 87 14 43 34 111 46 151 l21 72
41 0 c39 0 40 -1 34 -27 -6 -24 -75 -245 -133 -426 l-15 -48 -46 3 -46 3 -47
185 c-26 102 -50 178 -53 170 -2 -8 -24 -91 -48 -185 l-44 -170 -47 -3 -46 -3
-15 48 c-8 26 -40 131 -70 233 -31 102 -59 193 -62 203 -5 14 1 17 39 17 l44
0 31 -107z m945 60 c8 -27 31 -112 52 -191 21 -78 41 -139 45 -135 3 5 14 40
24 78 9 39 31 121 48 183 l30 112 43 0 43 0 16 -51 c8 -29 29 -112 47 -185 18
-74 36 -134 39 -134 3 0 18 42 32 93 15 50 39 134 54 185 l27 92 40 0 c38 0
39 -1 33 -27 -9 -36 -58 -194 -108 -350 l-40 -123 -42 0 -43 0 -47 173 c-25
95 -46 179 -46 186 0 8 -3 12 -6 9 -6 -6 -66 -225 -86 -315 l-12 -53 -47 0
-46 0 -67 218 c-36 119 -70 232 -75 250 l-10 32 44 0 c44 0 44 0 58 -47z"/>
<path d="M540 1275 c0 -23 99 -210 142 -270 38 -52 28 -53 188 3 63 22 141 45
173 52 32 8 60 16 62 19 3 6 -41 190 -47 196 -2 2 -119 7 -261 11 -244 7 -257
6 -257 -11z"/>
<path d="M1177 1282 c-21 -4 -21 -7 -2 -90 22 -97 18 -94 111 -76 293 56 694
58 999 5 61 -10 113 -16 117 -13 3 4 14 36 23 72 9 36 18 73 21 82 5 17 -32
18 -624 20 -346 2 -636 2 -645 0z"/>
<path d="M2695 1283 l-150 -3 -18 -78 c-9 -42 -20 -87 -23 -99 -5 -19 0 -23
38 -33 23 -7 110 -34 191 -61 81 -27 150 -49 152 -49 2 0 26 33 53 73 60 89
135 234 127 247 -4 6 -53 9 -113 8 -59 -1 -175 -4 -257 -5z"/>
<path d="M1575 1059 c-60 -5 -159 -17 -220 -27 l-110 -18 2 -28 c3 -44 104
-242 161 -316 66 -87 152 -164 226 -203 57 -30 67 -32 166 -32 102 0 107 1
177 38 94 51 144 95 216 192 52 70 153 259 171 321 8 27 3 29 -129 49 -226 33
-435 41 -660 24z"/>
<path d="M1070 974 c-62 -16 -273 -85 -279 -91 -14 -12 187 -186 295 -255 93
-60 322 -158 367 -158 6 0 -15 27 -46 59 -94 98 -210 296 -260 444 -7 20 -6
20 -77 1z"/>
<path d="M2452 952 c-35 -115 -157 -321 -253 -426 -50 -55 -51 -57 -23 -50 69
16 236 89 319 139 133 79 315 231 315 263 0 8 -152 62 -240 85 -113 30 -106
31 -118 -11z"/>
</g>
</svg>
