<svg width="33" height="33" viewBox="0 0 33 33" fill="none" xmlns="http://www.w3.org/2000/svg">
<path d="M30.8771 0.525421H17.0325C16.1502 0.525421 15.435 1.24063 15.435 2.12288V7.98022H3.18782C1.7174 7.98022 0.525391 9.17223 0.525391 10.6427V24.4873C0.525391 25.9577 1.7174 27.1497 3.18782 27.1497H9.04516V29.2797H7.44771C6.56546 29.2797 5.85025 29.9949 5.85025 30.8771C5.85025 31.7594 6.56546 32.4746 7.44771 32.4746H30.8771C31.7593 32.4746 32.4745 31.7594 32.4745 30.8771V2.12288C32.4745 1.24063 31.7593 0.525421 30.8771 0.525421ZM3.18782 9.04519H22.3573C23.2396 9.04519 23.9548 9.7604 23.9548 10.6427V23.4223H1.59036V10.6427C1.59036 9.7604 2.30557 9.04519 3.18782 9.04519ZM1.59036 24.4873H23.9548C23.9548 25.3695 23.2396 26.0847 22.3573 26.0847H3.18782C2.30557 26.0847 1.59036 25.3695 1.59036 24.4873ZM10.1101 27.1497H15.435V29.2797H10.1101V27.1497ZM17.0325 31.4096H7.44771C7.15362 31.4096 6.91522 31.1712 6.91522 30.8771C6.91522 30.583 7.15362 30.3446 7.44771 30.3446H18.0974C18.3915 30.3446 18.6299 30.583 18.6299 30.8771C18.6299 31.1712 18.3915 31.4096 18.0974 31.4096H17.0325ZM31.4096 30.8771C31.4096 31.1712 31.1712 31.4096 30.8771 31.4096H19.599C19.7716 30.9214 19.6969 30.3799 19.3986 29.9566C19.1002 29.5334 18.6152 29.2811 18.0974 29.2797H16.5V27.1497H22.3573C23.8277 27.1497 25.0197 25.9577 25.0197 24.4873V10.6427C25.0197 9.17223 23.8277 7.98022 22.3573 7.98022H16.5V2.12288C16.5 1.82879 16.7384 1.59039 17.0325 1.59039H30.8771C31.1712 1.59039 31.4096 1.82879 31.4096 2.12288V30.8771Z" fill="#DC7000"/>
</svg>
