<svg width="28" height="32" viewBox="0 0 28 32" fill="none" xmlns="http://www.w3.org/2000/svg">
<path d="M24.4768 6.53146C24.0921 3.77266 21.7232 1.59514 18.7892 1.59514H17.7568V1.53086C17.7568 1.03175 17.3522 0.627121 16.8531 0.627121H11.0451C10.546 0.627121 10.1414 1.03175 10.1414 1.53086V1.59508H9.10914C6.19966 1.59508 3.82747 3.74223 3.42405 6.53079C1.72997 6.91633 0.461426 8.4337 0.461426 10.2428V17.9868C0.461426 20.4634 2.47874 21.4728 3.39507 21.6906C3.80886 27.2659 8.49038 31.4746 13.9491 31.4746C19.5159 31.4746 24.0925 27.1544 24.5027 21.6908C26.878 21.1269 27.4368 18.9719 27.4368 17.9869V10.2429C27.4369 8.43466 26.1695 6.91789 24.4768 6.53146ZM17.7568 3.40255H18.7891C21.3462 3.40255 22.4025 5.49325 22.6221 6.43512H17.7568V3.40255ZM11.9489 2.43459H15.9494V6.43512H11.9489V2.43459ZM9.10914 3.40255H10.1414V6.43512H5.27984C5.866 3.97961 8.09051 3.40255 9.10914 3.40255ZM13.9491 29.6671C9.48859 29.6671 5.67573 26.288 5.2188 21.7946H9.67542C10.7844 21.7946 11.8695 21.3452 12.6524 20.5616C12.6571 20.557 12.6617 20.5523 12.6662 20.5475C13.0062 20.215 13.4727 20.0246 13.9491 20.0246C14.4257 20.0246 14.8921 20.215 15.2321 20.5476C15.2366 20.5523 15.2412 20.557 15.2459 20.5616C16.0288 21.3452 17.1139 21.7946 18.2229 21.7946H22.6791C22.2253 26.2109 18.4833 29.6671 13.9491 29.6671ZM25.6294 17.9869C25.6294 19.1054 24.7178 19.9871 23.6291 19.9871H18.2229C17.5968 19.9871 16.9843 19.7364 16.5391 19.2986C16.5342 19.2934 16.5293 19.2884 16.5243 19.2833C15.8467 18.6058 14.9082 18.2172 13.9492 18.2172C12.9903 18.2172 12.0517 18.6058 11.3741 19.2833C11.3691 19.2883 11.3641 19.2934 11.3593 19.2985C10.914 19.7364 10.3015 19.9871 9.67542 19.9871H4.2691C3.18389 19.9871 2.26883 19.1091 2.26883 17.9869V10.2429C2.26883 9.13994 3.16618 8.24265 4.2691 8.24265H23.6291C24.732 8.24265 25.6293 9.14 25.6293 10.2429V17.9869H25.6294Z" fill="#DC7000"/>
</svg>
