<svg width="191" height="41" viewBox="0 0 191 41" xmlns="http://www.w3.org/2000/svg">
<path d="M0 38.7681C0 37.9396 0.612316 37.2681 1.36765 37.2681H29.6324C30.3877 37.2681 31 37.9396 31 38.7681C31 39.5965 30.3877 40.2681 29.6324 40.2681H1.36765C0.612316 40.2681 0 39.5965 0 38.7681Z" fill="#52A500"/>
<path d="M0.727051 28.7499V1.21921H6.06602V28.7499H0.727051Z" />
<path d="M23.0988 9.08512C27.7127 9.08512 30.0197 11.7989 30.0197 17.2263V28.7499H24.9971V17.5016C24.9971 14.9059 23.7447 13.608 21.24 13.608C19.8163 13.608 18.6958 14.1193 17.8785 15.1419C17.0875 16.1382 16.692 17.6065 16.692 19.5468V28.7499H11.6695V9.47842H16.692V13.962C17.6939 10.7107 19.8295 9.08512 23.0988 9.08512Z" />
<path d="M50.0531 14.6699C52.5051 15.0108 54.2716 15.758 55.3526 16.9117C56.4335 18.0391 56.974 19.4026 56.974 21.002C56.974 23.388 56.1962 25.2758 54.6407 26.6654C53.1115 28.0551 51.0682 28.7499 48.5108 28.7499H35.3809V1.21921H47.443C50.0795 1.21921 52.1624 1.84849 53.6916 3.10703C55.2207 4.36558 55.9853 6.05675 55.9853 8.18054C55.9853 11.5891 54.0079 13.7522 50.0531 14.6699ZM40.5221 5.78144V12.7034H46.8893C49.3149 12.7034 50.5277 11.4711 50.5277 9.00646C50.5277 6.85645 49.3017 5.78144 46.8498 5.78144H40.5221ZM47.443 24.1877C50.1586 24.1877 51.5164 22.916 51.5164 20.3727C51.5164 18.1178 50.0531 16.9904 47.1266 16.9904H40.5221V24.1877H47.443Z" />
<path d="M73.8588 9.47842H78.8814V28.7499H73.8588V24.227C72.8569 27.5045 70.7082 29.1432 67.4125 29.1432C62.8249 29.1432 60.5312 26.4294 60.5312 21.002V9.47842H65.5537V20.7267C65.5537 23.3224 66.7929 24.6203 69.2713 24.6203C70.695 24.6203 71.8155 24.1221 72.6328 23.1258C73.4501 22.1032 73.8588 20.6218 73.8588 18.6815V9.47842Z" />
<path d="M90.6484 29.1432C88.2492 29.1432 86.2981 28.6057 84.7953 27.5307C83.2925 26.4557 82.4093 25.0922 82.1456 23.4404L86.8518 22.1425C87.01 23.3486 87.4055 24.1877 88.0382 24.6596C88.6974 25.1054 89.6729 25.3282 90.9648 25.3282C93.074 25.3282 94.1286 24.6727 94.1286 23.3617C94.1286 22.7587 93.9309 22.2998 93.5354 21.9852C93.1399 21.6706 92.3885 21.4215 91.2812 21.2379L88.0382 20.7267C86.2981 20.4383 84.9403 19.809 83.9648 18.8388C83.0157 17.8687 82.5411 16.5708 82.5411 14.9452C82.5411 13.1098 83.2266 11.6809 84.5976 10.6583C85.9686 9.60952 87.8669 9.08512 90.2925 9.08512C95.1173 9.08512 97.8725 10.9467 98.558 14.6699L94.1286 15.7318C93.9968 14.5519 93.6672 13.7522 93.1399 13.3327C92.6126 12.9132 91.7162 12.7034 90.4507 12.7034C88.5524 12.7034 87.6032 13.372 87.6032 14.7092C87.6032 15.2861 87.7746 15.7318 88.1173 16.0464C88.4865 16.3611 89.1192 16.584 90.0156 16.7151L93.9704 17.305C95.6051 17.5147 96.8706 18.1047 97.767 19.0748C98.6898 20.0187 99.1512 21.2642 99.1512 22.8111C99.1512 24.8038 98.3998 26.3639 96.897 27.4913C95.3942 28.5926 93.3113 29.1432 90.6484 29.1432Z" />
<path d="M107.509 5.42747C106.955 5.97809 106.151 6.2534 105.096 6.2534C104.042 6.2534 103.224 5.97809 102.644 5.42747C102.091 4.87686 101.814 4.09027 101.814 3.0677C101.814 1.02257 102.908 0 105.096 0C106.151 0 106.955 0.275306 107.509 0.825918C108.089 1.35031 108.379 2.09757 108.379 3.0677C108.379 4.09027 108.089 4.87686 107.509 5.42747ZM102.605 28.7499V9.47842H107.627V28.7499H102.605Z" />
<path d="M124.1 9.08512C128.714 9.08512 131.021 11.7989 131.021 17.2263V28.7499H125.999V17.5016C125.999 14.9059 124.746 13.608 122.242 13.608C120.818 13.608 119.697 14.1193 118.88 15.1419C118.089 16.1382 117.694 17.6065 117.694 19.5468V28.7499H112.671V9.47842H117.694V13.962C118.695 10.7107 120.831 9.08512 124.1 9.08512Z" />
<path d="M153.467 18.8388C153.467 19.5468 153.454 20.1629 153.428 20.6873H139.665C139.823 22.2867 140.271 23.4535 141.01 24.1877C141.774 24.8956 142.921 25.2496 144.45 25.2496C145.584 25.2496 146.454 25.0529 147.06 24.6596C147.667 24.2663 148.207 23.5584 148.682 22.5358L153.032 24.109C151.714 27.4651 148.814 29.1432 144.332 29.1432C141.352 29.1432 138.953 28.2386 137.134 26.4294C135.341 24.6203 134.445 22.2212 134.445 19.2321C134.445 16.2169 135.341 13.7784 137.134 11.9168C138.953 10.029 141.3 9.08512 144.173 9.08512C146.968 9.08512 149.209 9.97659 150.897 11.7595C152.61 13.5162 153.467 15.876 153.467 18.8388ZM144.213 12.8608C142.816 12.8608 141.748 13.2147 141.01 13.9227C140.298 14.6044 139.849 15.7187 139.665 17.2657H148.484C148.458 15.6663 148.102 14.5388 147.416 13.8833C146.731 13.2016 145.663 12.8608 144.213 12.8608Z" />
<path d="M163.857 29.1432C161.458 29.1432 159.507 28.6057 158.004 27.5307C156.501 26.4557 155.618 25.0922 155.354 23.4404L160.06 22.1425C160.218 23.3486 160.614 24.1877 161.247 24.6596C161.906 25.1054 162.881 25.3282 164.173 25.3282C166.282 25.3282 167.337 24.6727 167.337 23.3617C167.337 22.7587 167.139 22.2998 166.744 21.9852C166.348 21.6706 165.597 21.4215 164.49 21.2379L161.247 20.7267C159.507 20.4383 158.149 19.809 157.173 18.8388C156.224 17.8687 155.749 16.5708 155.749 14.9452C155.749 13.1098 156.435 11.6809 157.806 10.6583C159.177 9.60952 161.075 9.08512 163.501 9.08512C168.326 9.08512 171.081 10.9467 171.766 14.6699L167.337 15.7318C167.205 14.5519 166.876 13.7522 166.348 13.3327C165.821 12.9132 164.925 12.7034 163.659 12.7034C161.761 12.7034 160.812 13.372 160.812 14.7092C160.812 15.2861 160.983 15.7318 161.326 16.0464C161.695 16.3611 162.328 16.584 163.224 16.7151L167.179 17.305C168.813 17.5147 170.079 18.1047 170.975 19.0748C171.898 20.0187 172.36 21.2642 172.36 22.8111C172.36 24.8038 171.608 26.3639 170.105 27.4913C168.603 28.5926 166.52 29.1432 163.857 29.1432Z" />
<path d="M182.497 29.1432C180.098 29.1432 178.147 28.6057 176.644 27.5307C175.141 26.4557 174.258 25.0922 173.994 23.4404L178.7 22.1425C178.858 23.3486 179.254 24.1877 179.887 24.6596C180.546 25.1054 181.521 25.3282 182.813 25.3282C184.922 25.3282 185.977 24.6727 185.977 23.3617C185.977 22.7587 185.779 22.2998 185.384 21.9852C184.988 21.6706 184.237 21.4215 183.13 21.2379L179.887 20.7267C178.147 20.4383 176.789 19.809 175.813 18.8388C174.864 17.8687 174.39 16.5708 174.39 14.9452C174.39 13.1098 175.075 11.6809 176.446 10.6583C177.817 9.60952 179.715 9.08512 182.141 9.08512C186.966 9.08512 189.721 10.9467 190.406 14.6699L185.977 15.7318C185.845 14.5519 185.516 13.7522 184.988 13.3327C184.461 12.9132 183.565 12.7034 182.299 12.7034C180.401 12.7034 179.452 13.372 179.452 14.7092C179.452 15.2861 179.623 15.7318 179.966 16.0464C180.335 16.3611 180.968 16.584 181.864 16.7151L185.819 17.305C187.453 17.5147 188.719 18.1047 189.615 19.0748C190.538 20.0187 191 21.2642 191 22.8111C191 24.8038 190.248 26.3639 188.745 27.4913C187.243 28.5926 185.16 29.1432 182.497 29.1432Z" />
</svg>
