<svg width="72" height="72" viewBox="0 0 72 72" fill="none" xmlns="http://www.w3.org/2000/svg">
<g clip-path="url(#clip0_1241_13141)">
<path fill-rule="evenodd" clip-rule="evenodd" d="M61.0383 1.0106C61.2584 0.790499 61.5855 0.725861 61.872 0.844388C62.1577 0.962858 62.344 1.24163 62.344 1.55141L62.3434 9.65216L70.4479 9.65238C70.7568 9.65238 71.0357 9.83777 71.1557 10.1243C71.274 10.4103 71.2083 10.74 70.9897 10.9586L63.7803 18.1664L64.12 18.7067C67.5464 24.1578 69.352 30.4238 69.352 36.9136C69.352 55.8073 53.9799 71.1795 35.0862 71.1795C16.1924 71.1795 0.820312 55.8073 0.820312 36.9136C0.820312 18.0199 16.1938 2.64721 35.0861 2.64775C41.5753 2.64775 47.8404 4.45224 53.2903 7.87773L53.8305 8.21725L61.0383 1.0106ZM67.8222 36.9129V36.3355L67.8162 36.3335C67.7162 30.5897 66.129 25.0431 63.2042 20.1487L62.6777 19.2677L57.419 24.5251C57.2768 24.6675 57.0824 24.7482 56.8788 24.7482H52.0774L52.8287 25.9678C54.8468 29.2436 55.9495 33.0323 55.9495 36.9128C55.9495 48.4174 46.5894 57.7792 35.0859 57.7792C23.5814 57.7792 14.2196 48.4173 14.2196 36.9128C14.2196 25.4083 23.5802 16.0464 35.0859 16.0464H35.0876C38.967 16.0464 42.7519 17.1482 46.0266 19.1656L47.2462 19.9169V15.117C47.2462 14.9145 47.3266 14.72 47.4704 14.5763L52.7273 9.31936L51.8463 8.79276C46.7896 5.77024 41.0353 4.17722 35.0865 4.17722C17.0349 4.17722 2.35076 18.8613 2.35076 36.9129C2.35076 54.9646 17.0363 69.6487 35.0865 69.6487C53.1367 69.6487 67.8222 54.9646 67.8222 36.9129ZM47.2462 23.7286L39.8135 31.1029L39.2662 30.7315C38.0724 29.9213 36.6335 29.447 35.0861 29.447C34.5958 29.447 34.1165 29.4945 33.6524 29.5852C32.6839 29.7744 31.7818 30.1515 30.9857 30.6768C28.9598 32.0136 27.6203 34.3102 27.6203 36.9128C27.6203 41.0283 30.9696 44.3786 35.0861 44.3786C39.2009 44.3786 42.5513 41.0283 42.5513 36.9128C42.5513 35.3641 42.0775 33.9258 41.2668 32.7316L40.8954 32.1843L48.3311 24.7486H50.0986L50.3388 25.0576C52.9656 28.4368 54.4199 32.6108 54.4199 36.9132C54.4199 47.5765 45.748 56.2495 35.0864 56.2495C24.4231 56.2495 15.7502 47.5763 15.7502 36.9132C15.7491 26.2498 24.4234 17.5756 35.0864 17.5756H35.0881C39.389 17.5756 43.5597 19.0299 46.9376 21.6549L47.2467 21.8951L47.2462 23.7286ZM35.0855 42.8489C37.6809 42.8489 39.8909 41.1758 40.6956 38.8515C41.5 36.5 40.8954 34.9062 39.854 33.225L35.6247 37.4542C35.4749 37.604 35.2808 37.6784 35.084 37.6784C34.8869 37.6784 34.6932 37.6041 34.5429 37.4539C34.2445 37.1558 34.2442 36.6717 34.5433 36.3726L38.7726 32.1426L37.8007 31.6401C36.9884 31.2201 36.0654 30.977 35.0855 30.977C31.8118 30.977 29.1496 33.6392 29.1496 36.9129C29.1496 40.1867 31.8118 42.8489 35.0855 42.8489ZM56.5617 23.2174L62.2213 17.5595L62.2268 17.5538L62.2281 17.5525L62.2332 17.5474L62.2427 17.5379L62.2567 17.524L68.601 11.1812H61.5781C61.1562 11.1812 60.8131 10.8384 60.8131 10.4163V3.39796L54.4813 9.72825L54.4738 9.73595L54.4578 9.7525L54.4471 9.76339L54.4417 9.76885L54.4309 9.77874L48.7759 15.4338V23.2174H56.5617Z" fill="#9CE861"/>
</g>
<defs>
<clipPath id="clip0_1241_13141">
<rect width="72" height="72" fill="white"/>
</clipPath>
</defs>
</svg>
