<svg width="72" height="72" viewBox="0 0 72 72" fill="none" xmlns="http://www.w3.org/2000/svg">
<g clip-path="url(#clip0_1215_23625)">
<mask id="path-1-inside-1_1215_23625" fill="white">
<path d="M70.9238 30.9815L63.3114 30.003C62.5501 26.7405 61.3539 23.6955 59.5052 20.8683L64.0728 14.8874C64.3988 14.3438 64.3988 13.6912 63.964 13.2563L58.5267 7.81908C58.0919 7.38424 57.5482 7.38424 57.1129 7.71024L51.0231 12.3861C48.1959 10.6462 45.151 9.34118 41.8885 8.57992L40.91 0.967527C40.8011 0.423853 40.3663 -0.0109863 39.8226 -0.0109863H31.993C31.4493 -0.0109863 31.0145 0.423853 30.9057 0.967527L29.9271 8.57992C26.6646 9.34126 23.6197 10.5374 20.7925 12.3861L14.8105 7.70971C14.3757 7.38371 13.7232 7.38371 13.3967 7.81855L7.85057 13.3646C7.41573 13.7995 7.41573 14.3431 7.74173 14.7785L12.4176 20.8682C10.6777 23.6954 9.37268 26.7403 8.61141 30.0029L0.999021 30.9814C0.455347 31.0902 0.0205078 31.5251 0.0205078 32.0687V39.8983C0.0205078 40.442 0.455347 40.8769 0.999021 40.9857L8.61141 41.9642C9.37276 45.2268 10.5689 48.2717 12.4176 51.0989L7.74226 57.1897C7.41626 57.6245 7.41626 58.277 7.8511 58.6035L13.3972 64.1496C13.832 64.5844 14.3757 64.5844 14.811 64.2584L20.9008 59.5826C23.7279 61.3224 26.7729 62.6275 30.0354 63.3887L31.0139 71.0011C31.1228 71.5448 31.5576 71.9796 32.1013 71.9796H39.9309C40.4746 71.9796 40.9094 71.5448 41.0182 71.0011L41.9968 63.3887C45.2593 62.6274 48.3042 61.4312 51.1314 59.5826L57.1123 64.1501C57.33 64.259 57.656 64.3678 57.8737 64.3678C58.1997 64.3678 58.5262 64.259 58.7439 64.0418L64.1811 58.6045C64.616 58.1697 64.616 57.626 64.29 57.1907L59.6141 51.101C61.354 48.2738 62.659 45.2288 63.4203 41.9663L71.0327 40.9878C71.5763 40.8789 72.0112 40.4441 72.0112 39.9004V32.0708C71.9029 31.5251 71.4675 31.0902 70.9238 30.9814L70.9238 30.9815ZM69.7276 38.9199L62.3329 39.8984C61.898 40.0073 61.4627 40.3333 61.3543 40.7686C60.7018 44.2484 59.288 47.5109 57.3309 50.4469C57.1133 50.8818 57.1133 51.3171 57.3309 51.752L61.8985 57.6241L57.7658 61.9744L51.8937 57.4068C51.5677 57.0808 51.0235 57.0808 50.5886 57.4068C47.6526 59.3643 44.3901 60.7782 40.9103 61.4303C40.4755 61.5391 40.149 61.8651 40.0402 62.4088L38.9523 69.6953H32.9714L31.9929 62.3005C31.884 61.8657 31.558 61.4303 31.1227 61.322C27.6429 60.6695 24.3804 59.2557 21.4444 57.2986C21.0095 57.0809 20.5742 57.0809 20.1394 57.2986L14.2667 61.9744L10.0257 57.7334L14.4845 51.8613C14.8105 51.4265 14.8105 50.8828 14.4845 50.4474C12.527 47.5115 11.2219 44.3577 10.5695 40.8779C10.4606 40.4431 10.1346 40.1166 9.59095 40.0078L2.30498 38.9199V32.939L9.69976 31.9605C10.1346 31.8516 10.5699 31.5256 10.6783 31.0903C11.3308 27.6105 12.7446 24.348 14.7017 21.412C14.9194 20.9771 14.9194 20.5418 14.7017 20.107L10.0258 14.2343L14.2668 9.99329L20.139 14.4521C20.3566 14.6697 20.5738 14.6697 20.9003 14.6697C21.118 14.6697 21.444 14.5609 21.5528 14.4521C24.4888 12.4946 27.6425 11.1895 31.1223 10.5371C31.5571 10.4282 31.8837 10.1022 31.9925 9.55855L33.0803 2.27259H39.0613L40.0398 9.66736C40.1486 10.1022 40.4746 10.5375 40.91 10.6459C44.3897 11.2984 47.6523 12.7122 50.5883 14.6693C51.0231 14.887 51.4585 14.887 51.8933 14.6693L57.7654 10.1017L62.0064 14.3427L57.4388 20.2148C57.1128 20.5408 57.1128 21.085 57.4388 21.5199C59.3963 24.4559 60.8102 27.7184 61.4623 31.1982C61.5711 31.633 61.8971 31.9595 62.4408 32.0683L69.8355 33.0469L69.8366 38.92L69.7276 38.9199Z"/>
</mask>
<path d="M70.9238 30.9815L63.3114 30.003C62.5501 26.7405 61.3539 23.6955 59.5052 20.8683L64.0728 14.8874C64.3988 14.3438 64.3988 13.6912 63.964 13.2563L58.5267 7.81908C58.0919 7.38424 57.5482 7.38424 57.1129 7.71024L51.0231 12.3861C48.1959 10.6462 45.151 9.34118 41.8885 8.57992L40.91 0.967527C40.8011 0.423853 40.3663 -0.0109863 39.8226 -0.0109863H31.993C31.4493 -0.0109863 31.0145 0.423853 30.9057 0.967527L29.9271 8.57992C26.6646 9.34126 23.6197 10.5374 20.7925 12.3861L14.8105 7.70971C14.3757 7.38371 13.7232 7.38371 13.3967 7.81855L7.85057 13.3646C7.41573 13.7995 7.41573 14.3431 7.74173 14.7785L12.4176 20.8682C10.6777 23.6954 9.37268 26.7403 8.61141 30.0029L0.999021 30.9814C0.455347 31.0902 0.0205078 31.5251 0.0205078 32.0687V39.8983C0.0205078 40.442 0.455347 40.8769 0.999021 40.9857L8.61141 41.9642C9.37276 45.2268 10.5689 48.2717 12.4176 51.0989L7.74226 57.1897C7.41626 57.6245 7.41626 58.277 7.8511 58.6035L13.3972 64.1496C13.832 64.5844 14.3757 64.5844 14.811 64.2584L20.9008 59.5826C23.7279 61.3224 26.7729 62.6275 30.0354 63.3887L31.0139 71.0011C31.1228 71.5448 31.5576 71.9796 32.1013 71.9796H39.9309C40.4746 71.9796 40.9094 71.5448 41.0182 71.0011L41.9968 63.3887C45.2593 62.6274 48.3042 61.4312 51.1314 59.5826L57.1123 64.1501C57.33 64.259 57.656 64.3678 57.8737 64.3678C58.1997 64.3678 58.5262 64.259 58.7439 64.0418L64.1811 58.6045C64.616 58.1697 64.616 57.626 64.29 57.1907L59.6141 51.101C61.354 48.2738 62.659 45.2288 63.4203 41.9663L71.0327 40.9878C71.5763 40.8789 72.0112 40.4441 72.0112 39.9004V32.0708C71.9029 31.5251 71.4675 31.0902 70.9238 30.9814L70.9238 30.9815ZM69.7276 38.9199L62.3329 39.8984C61.898 40.0073 61.4627 40.3333 61.3543 40.7686C60.7018 44.2484 59.288 47.5109 57.3309 50.4469C57.1133 50.8818 57.1133 51.3171 57.3309 51.752L61.8985 57.6241L57.7658 61.9744L51.8937 57.4068C51.5677 57.0808 51.0235 57.0808 50.5886 57.4068C47.6526 59.3643 44.3901 60.7782 40.9103 61.4303C40.4755 61.5391 40.149 61.8651 40.0402 62.4088L38.9523 69.6953H32.9714L31.9929 62.3005C31.884 61.8657 31.558 61.4303 31.1227 61.322C27.6429 60.6695 24.3804 59.2557 21.4444 57.2986C21.0095 57.0809 20.5742 57.0809 20.1394 57.2986L14.2667 61.9744L10.0257 57.7334L14.4845 51.8613C14.8105 51.4265 14.8105 50.8828 14.4845 50.4474C12.527 47.5115 11.2219 44.3577 10.5695 40.8779C10.4606 40.4431 10.1346 40.1166 9.59095 40.0078L2.30498 38.9199V32.939L9.69976 31.9605C10.1346 31.8516 10.5699 31.5256 10.6783 31.0903C11.3308 27.6105 12.7446 24.348 14.7017 21.412C14.9194 20.9771 14.9194 20.5418 14.7017 20.107L10.0258 14.2343L14.2668 9.99329L20.139 14.4521C20.3566 14.6697 20.5738 14.6697 20.9003 14.6697C21.118 14.6697 21.444 14.5609 21.5528 14.4521C24.4888 12.4946 27.6425 11.1895 31.1223 10.5371C31.5571 10.4282 31.8837 10.1022 31.9925 9.55855L33.0803 2.27259H39.0613L40.0398 9.66736C40.1486 10.1022 40.4746 10.5375 40.91 10.6459C44.3897 11.2984 47.6523 12.7122 50.5883 14.6693C51.0231 14.887 51.4585 14.887 51.8933 14.6693L57.7654 10.1017L62.0064 14.3427L57.4388 20.2148C57.1128 20.5408 57.1128 21.085 57.4388 21.5199C59.3963 24.4559 60.8102 27.7184 61.4623 31.1982C61.5711 31.633 61.8971 31.9595 62.4408 32.0683L69.8355 33.0469L69.8366 38.92L69.7276 38.9199Z" fill="#9CE861" stroke="#080708" stroke-width="0.6" mask="url(#path-1-inside-1_1215_23625)"/>
<path d="M16.0494 35.9836C16.0494 24.9745 25.0078 16.0158 36.0172 16.0158C47.0262 16.0158 55.9849 24.9745 55.9849 35.9836C55.9849 46.9926 47.0262 55.9513 36.0172 55.9513C25.0081 55.9513 16.0494 46.9926 16.0494 35.9836ZM17.9243 35.9836C17.9243 45.9621 26.0384 54.0765 36.0172 54.0765C45.9957 54.0765 54.1101 45.9621 54.1101 35.9836C54.1101 26.0051 45.9957 17.8907 36.0172 17.8907C26.0387 17.8907 17.9243 26.0051 17.9243 35.9836Z" fill="#9CE861" stroke="#080708" stroke-width="0.3"/>
<path d="M36.0167 38.5941C35.473 38.5941 35.0381 38.8118 34.7116 39.1378C34.3856 39.4638 34.168 39.8991 34.168 40.4428C34.168 40.9865 34.3856 41.4213 34.7116 41.7478C35.0376 42.0738 35.473 42.2915 36.0167 42.2915C36.5603 42.2915 36.9952 42.0738 37.3217 41.7478C37.6477 41.4218 37.8654 40.9865 37.8654 40.4428C37.8654 39.8991 37.6477 39.4643 37.3217 39.1378C36.9952 38.8113 36.5603 38.5941 36.0167 38.5941Z" fill="#9CE861"/>
<path d="M34.168 30.1113L34.8205 37.6144H37.2128L37.8654 30.1113V27.5012H34.168L34.168 30.1113Z" fill="#9CE861"/>
</g>
<defs>
<clipPath id="clip0_1215_23625">
<rect width="72" height="72" fill="white"/>
</clipPath>
</defs>
</svg>
