<svg width="64" height="72" viewBox="0 0 64 72" fill="none" xmlns="http://www.w3.org/2000/svg">
<path fill-rule="evenodd" clip-rule="evenodd" d="M30.5621 8.81226C13.7716 9.56374 0.389648 23.4142 0.389648 40.3901C0.389648 57.8478 14.5419 72 31.9996 72C49.4573 72 63.6095 57.8478 63.6095 40.3901C63.6095 31.3774 59.8376 23.2457 53.7863 17.4874C53.4653 18.0904 53.0963 18.664 52.6844 19.2031C58.191 24.58 61.6095 32.0858 61.6095 40.3901C61.6095 56.7432 48.3527 70 31.9996 70C15.6465 70 2.38965 56.7432 2.38965 40.3901C2.38965 24.6176 14.7218 11.7255 30.2698 10.8298C30.3129 10.1407 30.4118 9.46666 30.5621 8.81226Z" fill="#9CE861"/>
<path d="M31.2145 23.2515C31.3176 23.4505 31.4949 23.6004 31.7078 23.668C31.9206 23.7357 32.1513 23.7157 32.3495 23.6125C34.2022 22.6418 35.9342 21.4538 37.5089 20.0732C39.3795 21.2631 41.6203 21.7176 43.8033 21.3499C45.9859 20.9823 47.9573 19.8183 49.3407 18.0803C50.724 16.3423 51.4224 14.1524 51.302 11.9289L50.2514 0.767074C50.2268 0.502862 50.0803 0.265493 49.8558 0.126006C49.6313 -0.0132826 49.3548 -0.038606 49.1089 0.0575881L38.639 4.15007C36.8227 4.9584 35.3244 6.35037 34.3792 8.10781C33.4341 9.86507 33.0953 11.8885 33.4163 13.86C33.7371 15.832 34.6997 17.6409 36.1525 19.0031C34.7461 20.2068 33.2106 21.2485 31.5744 22.1094C31.3763 22.2128 31.2271 22.3912 31.1595 22.6051C31.0921 22.8192 31.1118 23.0515 31.2145 23.2509L31.2145 23.2515ZM35.9877 16.1209C34.9476 14.3215 34.7129 12.1633 35.3417 10.18C35.9704 8.1967 37.4039 6.5738 39.2874 5.71274L48.6811 2.04191L49.6246 12.0513V12.0511C49.7165 13.8055 49.1804 15.535 48.1136 16.9256C47.0466 18.3164 45.5196 19.2765 43.8094 19.6317C42.0993 19.9868 40.3192 19.7133 38.7923 18.8609C40.7527 16.9307 42.3926 14.6965 43.6493 12.2432C43.7532 12.0436 43.774 11.8108 43.7068 11.5959C43.6397 11.381 43.4902 11.202 43.2915 11.0982C43.0927 10.9947 42.8611 10.9748 42.6479 11.0434C42.4347 11.1119 42.2573 11.2631 42.1552 11.4636C40.9355 13.8468 39.3288 16.0083 37.4015 17.8593C36.8447 17.3558 36.3681 16.7692 35.9881 16.1202L35.9877 16.1209Z" fill="#9CE861"/>
<path d="M33.305 57.8407V54.1853C35.6479 53.8531 37.7665 52.9668 39.3281 51.5266C41.5588 49.4218 42.3401 45.9881 41.001 43.5512C40.1085 41.6682 37.989 39.4529 33.3041 39.0094V28.7082C35.4237 29.1509 37.989 30.7016 37.989 33.0282H40.7777C40.7777 29.2622 37.0967 26.6035 33.4154 25.9389H33.3042V21.9512H30.5155V25.8285C27.8382 25.939 25.384 26.9365 23.7112 28.7084C21.4805 30.9236 20.8112 34.2469 22.1496 36.6838C23.7112 39.6748 27.169 41.1142 29.8465 41.4465C29.9577 41.4465 30.2923 41.4465 30.5156 41.557V51.5259C30.2923 51.5259 30.1811 51.5259 29.9577 51.4155C28.0616 51.0832 24.9384 49.5325 24.9384 46.985H22.1497C22.1497 50.751 25.8307 53.5203 29.3998 54.1847C29.7344 54.2952 30.069 54.2952 30.4035 54.2952V57.9506L33.3049 57.9514L33.305 57.8407ZM38.4365 44.6589C39.1057 46.0991 38.6598 48.0925 37.3207 49.4216C36.317 50.4183 34.8667 51.0828 33.3051 51.3046V41.6678C35.3133 42 37.544 42.7758 38.4366 44.6588L38.4365 44.6589ZM30.0706 38.5663C28.0631 38.3445 25.497 37.3478 24.4932 35.3544C23.712 33.9141 24.2699 31.9207 25.609 30.5916C26.8361 29.3731 28.621 28.7086 30.5173 28.5982V38.6785C30.2932 38.5664 30.1819 38.5664 30.0706 38.5664L30.0706 38.5663Z" fill="#9CE861"/>
</svg>
