<svg width="446" height="337" viewBox="0 0 446 337" fill="none" xmlns="http://www.w3.org/2000/svg">
<rect width="446" height="337" fill="none"/>
<rect x="61.5" y="61.5" width="161" height="214" rx="11.5" fill="#080708" stroke="#F5F5F5"/>
<rect x="222.5" y="61.5" width="161" height="214" rx="11.5" fill="#080708" stroke="#F5F5F5"/>
<rect width="112" height="1" transform="matrix(-1 0 0 1 198 152)" fill="#D9D9D9" fill-opacity="0.15"/>
<rect width="112" height="1" transform="matrix(-1 0 0 1 198 133)" fill="#D9D9D9" fill-opacity="0.15"/>
<rect width="112" height="1" transform="matrix(-1 0 0 1 198 113)" fill="#D9D9D9" fill-opacity="0.15"/>
<rect width="112" height="1" transform="matrix(-1 0 0 1 198 169)" fill="#D9D9D9" fill-opacity="0.15"/>
<rect width="112" height="1" transform="matrix(-1 0 0 1 198 186)" fill="#D9D9D9" fill-opacity="0.15"/>
<rect width="112" height="1" transform="matrix(-1 0 0 1 198 205)" fill="#D9D9D9" fill-opacity="0.15"/>
<path d="M86 220L117.341 158.23L155.591 179.338L198 133" stroke="white"/>
<path d="M86 220L117.232 179.104L155.349 196.2L198 101" stroke="#9CE861"/>
<rect x="247" y="142" width="112" height="1" fill="#D9D9D9"/>
<rect x="247" y="158" width="112" height="1" fill="#D9D9D9"/>
<rect width="63" height="1" transform="matrix(1 0 0 -1 247 191)" fill="#D9D9D9"/>
<rect width="87" height="1" transform="matrix(1 0 0 -1 247 175)" fill="#D9D9D9"/>
<rect x="247" y="253" width="35" height="1" fill="#D9D9D9"/>
<rect opacity="0.4" x="247" y="93" width="69" height="4" fill="#D9D9D9"/>
<rect opacity="0.4" x="247" y="106" width="28" height="4" fill="#D9D9D9"/>
<rect x="337" y="236" width="22" height="2" fill="#D9D9D9"/>
<circle cx="356" cy="245" r="39.5" fill="#9CE861" stroke="#9CE861"/>
</svg>
