<svg width="446" height="337" viewBox="0 0 446 337" fill="none" xmlns="http://www.w3.org/2000/svg">
<rect width="446" height="337" fill="none"/>
<circle r="35.5" transform="matrix(1 0 0 -1 223 169)" fill="#080708" stroke="#F5F5F5"/>
<circle r="36" transform="matrix(1 0 0 -1 223 65)" fill="#9CE861"/>
<circle r="35.5" transform="matrix(1 0 0 -1 120 225)" fill="#080708" stroke="#9CE861"/>
<circle r="35.5" transform="matrix(1 0 0 -1 326 225)" fill="#080708" stroke="#9CE861"/>
<circle r="35.5" transform="matrix(1 0 0 -1 223 273)" fill="#080708" stroke="#9CE861"/>
<path opacity="0.4" d="M223 101L223 133" stroke="white"/>
<path opacity="0.4" d="M192.539 187L151 208.56" stroke="white"/>
<path opacity="0.4" d="M253 187L294.539 208.56" stroke="white"/>
<path opacity="0.4" d="M223 205L223 237" stroke="white"/>
<path d="M227.877 60.75H221.649V64.404H227.625V65.754H221.649V72H220.209V59.4H227.877V60.75Z" fill="#080708"/>
<path d="M109.514 220.038C110.75 218.826 112.256 218.22 114.032 218.22C115.808 218.22 117.308 218.826 118.532 220.038C119.768 221.238 120.386 222.774 120.386 224.646C120.386 226.518 119.768 228.078 118.532 229.326C117.296 230.562 115.796 231.18 114.032 231.18C112.268 231.18 110.768 230.562 109.532 229.326C108.296 228.078 107.678 226.518 107.678 224.646C107.678 222.774 108.29 221.238 109.514 220.038ZM110.432 228.516C111.272 229.416 112.472 229.866 114.032 229.866C115.592 229.866 116.792 229.416 117.632 228.516C118.472 227.604 118.892 226.314 118.892 224.646C118.892 223.014 118.472 221.754 117.632 220.866C116.792 219.978 115.592 219.534 114.032 219.534C112.472 219.534 111.272 219.978 110.432 220.866C109.592 221.754 109.172 223.014 109.172 224.646C109.172 226.314 109.592 227.604 110.432 228.516ZM128.57 229.866C130.034 229.866 131.126 229.566 131.846 228.966C132.566 228.354 133.034 227.334 133.25 225.906L134.618 226.302C134.318 227.886 133.646 229.098 132.602 229.938C131.57 230.766 130.226 231.18 128.57 231.18C126.794 231.18 125.282 230.562 124.034 229.326C122.798 228.078 122.18 226.518 122.18 224.646C122.18 222.774 122.798 221.238 124.034 220.038C125.282 218.826 126.794 218.22 128.57 218.22C130.226 218.22 131.57 218.64 132.602 219.48C133.646 220.308 134.318 221.514 134.618 223.098L133.25 223.494C133.034 222.066 132.566 221.052 131.846 220.452C131.126 219.84 130.034 219.534 128.57 219.534C126.998 219.534 125.786 219.978 124.934 220.866C124.094 221.754 123.674 223.014 123.674 224.646C123.674 226.314 124.094 227.604 124.934 228.516C125.786 229.416 126.998 229.866 128.57 229.866Z" fill="white"/>
<path d="M218.903 162.4H220.343V175H218.903V169.114H212.027V175H210.587V162.4H212.027V167.8H218.903V162.4ZM229.351 173.866C230.815 173.866 231.907 173.566 232.627 172.966C233.347 172.354 233.815 171.334 234.031 169.906L235.399 170.302C235.099 171.886 234.427 173.098 233.383 173.938C232.351 174.766 231.007 175.18 229.351 175.18C227.575 175.18 226.063 174.562 224.815 173.326C223.579 172.078 222.961 170.518 222.961 168.646C222.961 166.774 223.579 165.238 224.815 164.038C226.063 162.826 227.575 162.22 229.351 162.22C231.007 162.22 232.351 162.64 233.383 163.48C234.427 164.308 235.099 165.514 235.399 167.098L234.031 167.494C233.815 166.066 233.347 165.052 232.627 164.452C231.907 163.84 230.815 163.534 229.351 163.534C227.779 163.534 226.567 163.978 225.715 164.866C224.875 165.754 224.455 167.014 224.455 168.646C224.455 170.314 224.875 171.604 225.715 172.516C226.567 173.416 227.779 173.866 229.351 173.866Z" fill="white"/>
<path d="M315.514 220.038C316.75 218.826 318.256 218.22 320.032 218.22C321.808 218.22 323.308 218.826 324.532 220.038C325.768 221.238 326.386 222.774 326.386 224.646C326.386 226.518 325.768 228.078 324.532 229.326C323.296 230.562 321.796 231.18 320.032 231.18C318.268 231.18 316.768 230.562 315.532 229.326C314.296 228.078 313.678 226.518 313.678 224.646C313.678 222.774 314.29 221.238 315.514 220.038ZM316.432 228.516C317.272 229.416 318.472 229.866 320.032 229.866C321.592 229.866 322.792 229.416 323.632 228.516C324.472 227.604 324.892 226.314 324.892 224.646C324.892 223.014 324.472 221.754 323.632 220.866C322.792 219.978 321.592 219.534 320.032 219.534C318.472 219.534 317.272 219.978 316.432 220.866C315.592 221.754 315.172 223.014 315.172 224.646C315.172 226.314 315.592 227.604 316.432 228.516ZM334.57 229.866C336.034 229.866 337.126 229.566 337.846 228.966C338.566 228.354 339.034 227.334 339.25 225.906L340.618 226.302C340.318 227.886 339.646 229.098 338.602 229.938C337.57 230.766 336.226 231.18 334.57 231.18C332.794 231.18 331.282 230.562 330.034 229.326C328.798 228.078 328.18 226.518 328.18 224.646C328.18 222.774 328.798 221.238 330.034 220.038C331.282 218.826 332.794 218.22 334.57 218.22C336.226 218.22 337.57 218.64 338.602 219.48C339.646 220.308 340.318 221.514 340.618 223.098L339.25 223.494C339.034 222.066 338.566 221.052 337.846 220.452C337.126 219.84 336.034 219.534 334.57 219.534C332.998 219.534 331.786 219.978 330.934 220.866C330.094 221.754 329.674 223.014 329.674 224.646C329.674 226.314 330.094 227.604 330.934 228.516C331.786 229.416 332.998 229.866 334.57 229.866Z" fill="white"/>
<path d="M212.454 269.038C213.69 267.826 215.196 267.22 216.972 267.22C218.748 267.22 220.248 267.826 221.472 269.038C222.708 270.238 223.326 271.774 223.326 273.646C223.326 275.518 222.708 277.078 221.472 278.326C220.236 279.562 218.736 280.18 216.972 280.18C215.208 280.18 213.708 279.562 212.472 278.326C211.236 277.078 210.618 275.518 210.618 273.646C210.618 271.774 211.23 270.238 212.454 269.038ZM213.372 277.516C214.212 278.416 215.412 278.866 216.972 278.866C218.532 278.866 219.732 278.416 220.572 277.516C221.412 276.604 221.832 275.314 221.832 273.646C221.832 272.014 221.412 270.754 220.572 269.866C219.732 268.978 218.532 268.534 216.972 268.534C215.412 268.534 214.212 268.978 213.372 269.866C212.532 270.754 212.112 272.014 212.112 273.646C212.112 275.314 212.532 276.604 213.372 277.516ZM231.51 278.866C232.974 278.866 234.066 278.566 234.786 277.966C235.506 277.354 235.974 276.334 236.19 274.906L237.558 275.302C237.258 276.886 236.586 278.098 235.542 278.938C234.51 279.766 233.166 280.18 231.51 280.18C229.734 280.18 228.222 279.562 226.974 278.326C225.738 277.078 225.12 275.518 225.12 273.646C225.12 271.774 225.738 270.238 226.974 269.038C228.222 267.826 229.734 267.22 231.51 267.22C233.166 267.22 234.51 267.64 235.542 268.48C236.586 269.308 237.258 270.514 237.558 272.098L236.19 272.494C235.974 271.066 235.506 270.052 234.786 269.452C234.066 268.84 232.974 268.534 231.51 268.534C229.938 268.534 228.726 268.978 227.874 269.866C227.034 270.754 226.614 272.014 226.614 273.646C226.614 275.314 227.034 276.604 227.874 277.516C228.726 278.416 229.938 278.866 231.51 278.866Z" fill="white"/>
</svg>
