<svg width="446" height="337" viewBox="0 0 446 337" fill="none" xmlns="http://www.w3.org/2000/svg">
<rect width="446" height="337" fill="none"/>
<rect x="53.5" y="49.5" width="339" height="239" rx="19.5" fill="#080708" stroke="#F5F5F5"/>
<rect opacity="0.4" x="101" y="207" width="80" height="6" fill="#D9D9D9"/>
<rect opacity="0.4" x="101" y="229" width="56" height="6" fill="#D9D9D9"/>
<circle cx="141" cy="134" r="50.5" fill="#9CE861" stroke="#9CE861"/>
<path d="M163.388 120.38L134.379 149.387L119 134.008" stroke="#080708" stroke-width="5"/>
<rect x="260" y="92" width="77" height="2" fill="#D9D9D9"/>
<rect x="260" y="239" width="77" height="2" fill="#D9D9D9"/>
<rect x="260" y="102" width="50" height="2" fill="#D9D9D9"/>
<rect x="260" y="249" width="50" height="2" fill="#D9D9D9"/>
<rect x="260" y="141" width="97" height="2" fill="#D9D9D9"/>
<rect x="260" y="195" width="69" height="2" fill="#D9D9D9"/>
<rect x="260" y="151" width="64" height="2" fill="#D9D9D9"/>
<circle cx="233" cy="98" r="9.5" stroke="#F5F5F5"/>
<circle cx="233" cy="147" r="9.5" stroke="#F5F5F5"/>
<circle cx="233" cy="196" r="9.5" stroke="#F5F5F5"/>
<circle cx="233" cy="245" r="9.5" stroke="#F5F5F5"/>
</svg>
