<svg width="446" height="337" viewBox="0 0 446 337" fill="none" xmlns="http://www.w3.org/2000/svg">
<rect width="446" height="337" fill="none"/>
<rect opacity="0.6" x="37" y="108" width="372" height="1" fill="#D9D9D9" fill-opacity="0.3"/>
<rect opacity="0.6" x="37" y="88" width="372" height="1" fill="#D9D9D9" fill-opacity="0.15"/>
<rect opacity="0.6" x="37" y="69" width="372" height="1" fill="#D9D9D9" fill-opacity="0.15"/>
<rect opacity="0.4" x="37" y="50" width="372" height="1" fill="#D9D9D9" fill-opacity="0.15"/>
<rect opacity="0.6" x="37" y="128" width="372" height="1" fill="#D9D9D9" fill-opacity="0.4"/>
<rect opacity="0.6" x="37" y="148" width="372" height="1" fill="#D9D9D9" fill-opacity="0.6"/>
<rect opacity="0.6" x="37" y="168" width="372" height="1" fill="#D9D9D9" fill-opacity="0.8"/>
<rect opacity="0.6" width="372" height="1" transform="matrix(1 0 0 -1 37 230)" fill="#D9D9D9" fill-opacity="0.3"/>
<rect opacity="0.6" width="372" height="1" transform="matrix(1 0 0 -1 37 250)" fill="#D9D9D9" fill-opacity="0.15"/>
<rect opacity="0.6" width="372" height="1" transform="matrix(1 0 0 -1 37 270)" fill="#D9D9D9" fill-opacity="0.15"/>
<rect opacity="0.4" width="372" height="1" transform="matrix(1 0 0 -1 37 289)" fill="#D9D9D9" fill-opacity="0.15"/>
<rect opacity="0.6" width="372" height="1" transform="matrix(1 0 0 -1 37 210)" fill="#D9D9D9" fill-opacity="0.4"/>
<rect opacity="0.6" width="372" height="1" transform="matrix(1 0 0 -1 37 190)" fill="#D9D9D9" fill-opacity="0.6"/>
<circle cx="174" cy="169" r="79.5" fill="#9CE861" stroke="#9CE861"/>
<path fill-rule="evenodd" clip-rule="evenodd" d="M232.869 236.845C253.181 228.526 264.029 217.657 272.735 208.205L273.471 208.883C264.677 218.43 253.71 229.389 233.248 237.77C212.783 246.152 188.156 249.805 162.813 240.358C162.008 240.123 161.072 239.792 160.063 239.37C155.363 243.431 149.107 246.383 142.471 246.383C136.345 246.383 130.814 244.859 126.563 242.432C123.935 243.39 120.974 243.883 117.971 243.883C113.388 243.883 107.437 242.487 102.622 240.08C101.266 239.402 99.9912 238.639 98.859 237.799C97.389 238.192 95.8712 238.383 94.4706 238.383C88.6803 238.383 79.8614 237.503 71.5956 234.159C63.324 230.812 55.5632 224.978 52 215.052C55.4368 224.626 63.8673 230.103 71.9707 233.382C80.0798 236.662 88.7609 237.383 94.4706 237.383C95.5608 237.383 96.7225 237.26 97.8671 237.011C97.3762 236.592 96.9209 236.156 96.5078 235.704C94.9515 234.002 93.9706 232.043 93.9706 229.883C93.9706 227.747 94.7764 226.108 96.0134 225.009C97.2412 223.917 98.8641 223.383 100.471 223.383C101.584 223.383 103.075 223.822 104.293 224.851C105.529 225.894 106.471 227.533 106.471 229.883C106.471 232.866 104.696 235.007 102.348 236.377C101.633 236.794 100.861 237.143 100.059 237.427C100.979 238.059 101.992 238.647 103.069 239.185C107.754 241.528 113.553 242.883 117.971 242.883C120.582 242.883 123.142 242.497 125.449 241.757C125.342 241.688 125.236 241.619 125.131 241.549C120.739 238.621 117.971 234.611 117.971 230.383C117.971 227.055 119.145 224.664 120.888 223.11C122.619 221.565 124.869 220.883 126.971 220.883C128.838 220.883 131.084 221.599 132.868 223.212C134.666 224.836 135.971 227.348 135.971 230.883C135.971 235.087 133.728 238.355 130.369 240.551C129.562 241.079 128.688 241.546 127.764 241.951C131.753 244.06 136.84 245.383 142.471 245.383C148.648 245.383 154.529 242.702 159.044 238.924C156.998 237.985 154.747 236.704 152.724 235.113C149.322 232.438 146.471 228.81 146.471 224.383C146.471 220.081 147.753 216.948 149.735 214.886C151.715 212.827 154.351 211.883 156.971 211.883C159.563 211.883 162.44 212.659 164.676 214.633C166.926 216.617 168.471 219.763 168.471 224.383C168.471 228.989 165.48 234.367 160.891 238.629C161.702 238.953 162.453 239.212 163.11 239.402L163.128 239.408L163.145 239.414C188.196 248.759 212.563 245.161 232.869 236.845ZM159.876 238.201C159.9 238.18 159.924 238.159 159.947 238.137C164.58 233.937 167.471 228.686 167.471 224.383C167.471 220.002 166.016 217.148 164.015 215.383C162.001 213.606 159.379 212.883 156.971 212.883C154.59 212.883 152.226 213.738 150.456 215.579C148.688 217.418 147.471 220.284 147.471 224.383C147.471 228.356 150.035 231.727 153.342 234.327C155.436 235.974 157.789 237.279 159.876 238.201ZM126.655 241.328C127.797 240.882 128.861 240.342 129.822 239.714C132.963 237.66 134.971 234.678 134.971 230.883C134.971 227.617 133.775 225.379 132.198 223.954C130.607 222.516 128.604 221.883 126.971 221.883C125.072 221.883 123.072 222.5 121.553 223.856C120.046 225.201 118.971 227.31 118.971 230.383C118.971 234.155 121.452 237.895 125.685 240.717C125.999 240.926 126.323 241.13 126.655 241.328ZM99.067 236.7C100.049 236.403 100.995 236.008 101.844 235.513C103.995 234.258 105.471 232.399 105.471 229.883C105.471 227.832 104.662 226.471 103.648 225.615C102.616 224.743 101.357 224.383 100.471 224.383C99.0771 224.383 97.7 224.848 96.6778 225.756C95.6647 226.657 94.9706 228.018 94.9706 229.883C94.9706 231.722 95.8021 233.45 97.2459 235.03C97.7776 235.611 98.3894 236.169 99.067 236.7Z" fill="#F5F5F5"/>
<path d="M349.522 224.164L325.42 166.944L307.04 185.458C317.057 195.403 336.612 222.171 345.137 234.311C350.447 228.963 350.505 226.57 349.522 224.164Z" fill="#080708" stroke="#F5F5F5"/>
<path d="M256.592 131.898L313.981 155.586L295.601 174.101C285.585 164.156 258.678 144.794 246.477 136.356C251.787 131.008 254.179 130.932 256.592 131.898Z" fill="#080708" stroke="#F5F5F5"/>
<path d="M276.151 184.092L297.191 204.981L312.652 189.407L291.612 168.518L276.151 184.092Z" fill="#080708" stroke="#F5F5F5"/>
<path d="M286.815 225.153L277.547 205.157L266.705 216.079L284.225 239.9C288.087 236.01 289.121 230.127 286.815 225.153Z" fill="#080708" stroke="#F5F5F5"/>
<path d="M256.057 194.614L276.118 203.738L265.275 214.66L241.33 197.311C245.192 193.421 251.067 192.345 256.057 194.614Z" fill="#080708" stroke="#F5F5F5"/>
<path d="M342.018 151.868C351.251 142.567 355.721 131.895 357.297 125.918C357.642 124.61 356.513 123.484 355.202 123.813C349.147 125.336 338.178 129.568 328.935 138.878L292.495 175.586C284.865 183.272 273.421 203.872 275.427 205.863C277.433 207.855 297.948 196.262 305.578 188.576L342.018 151.868Z" fill="#080708" stroke="#F5F5F5"/>
<path d="M299.657 179C300.106 178.547 308.496 171.226 309.159 171.884C309.822 172.542 302.89 180.547 302.44 181L267.351 216.399C266.902 216.852 262.035 220.679 261.372 220.021C260.709 219.363 264.501 214.469 264.951 214.016L299.657 179Z" fill="#080708" stroke="#F5F5F5"/>
<path d="M311.82 187.427C312.303 187.002 313.043 187.052 313.474 187.54L317.564 192.174C317.995 192.661 317.952 193.401 317.469 193.827L316.375 194.79C303.578 206.058 298.511 208.465 297.973 207.856L295.441 204.987C294.903 204.378 297.929 199.658 310.726 188.391L311.82 187.427Z" fill="#080708" stroke="#F5F5F5"/>
<path d="M293.536 169.249C293.958 168.763 293.902 168.023 293.411 167.596L288.748 163.539C288.258 163.112 287.518 163.16 287.096 163.646L286.141 164.747C274.967 177.626 272.596 182.711 273.21 183.244L276.096 185.756C276.709 186.29 281.406 183.229 292.581 170.35L293.536 169.249Z" fill="#080708" stroke="#F5F5F5"/>
</svg>
