<?xml version="1.0" encoding="utf-8"?><svg viewBox="0 0 191 72" xmlns="http://www.w3.org/2000/svg" xmlns:xlink="http://www.w3.org/1999/xlink"><style>:root>svg{display:none}:root>svg:target{display:block}</style><svg fill="none" viewBox="0 0 36 21" id="chevron" xmlns="http://www.w3.org/2000/svg"><path d="M2 19L18 3l8 8 8 8" stroke="#080708" stroke-width="4"/></svg><svg viewBox="0 0 22 20" id="double-chevron" xmlns="http://www.w3.org/2000/svg"><path fill-rule="evenodd" clip-rule="evenodd" d="M9.693 7.465L11 8.587 20.242 0 22 1.654l-9.293 8.693L11 11.953l-.05.047L0 1.654 1.758 0l7.935 7.465zm0 8L11 16.587 20.242 8 22 9.654l-9.293 8.692L11 19.953l-.05.047L0 9.654 1.758 8l7.935 7.464z" fill="#fff"/></svg><svg viewBox="0 0 191 41" id="logo" xmlns="http://www.w3.org/2000/svg"><path d="M0 38.768c0-.828.612-1.5 1.368-1.5h28.264c.756 0 1.368.672 1.368 1.5s-.612 1.5-1.368 1.5H1.368c-.756 0-1.368-.672-1.368-1.5z" fill="#52A500"/><path d="M.727 28.75V1.22h5.339v27.53H.727zM23.099 9.085c4.614 0 6.92 2.714 6.92 8.141V28.75h-5.022V17.502c0-2.596-1.252-3.894-3.757-3.894-1.424 0-2.544.511-3.361 1.534-.792.996-1.187 2.465-1.187 4.405v9.203h-5.023V9.478h5.023v4.484c1.002-3.251 3.137-4.877 6.407-4.877zM50.053 14.67c2.452.34 4.219 1.088 5.3 2.242 1.08 1.127 1.621 2.49 1.621 4.09 0 2.386-.778 4.274-2.333 5.663-1.53 1.39-3.573 2.085-6.13 2.085H35.38V1.22h12.062c2.637 0 4.72.628 6.249 1.887s2.293 2.95 2.293 5.074c0 3.408-1.977 5.571-5.932 6.489zm-9.53-8.889v6.922h6.366c2.426 0 3.639-1.232 3.639-3.697 0-2.15-1.226-3.225-3.678-3.225h-6.328zm6.92 18.407c2.716 0 4.073-1.272 4.073-3.815 0-2.255-1.463-3.383-4.39-3.383h-6.604v7.198h6.921zM73.859 9.478h5.022V28.75H73.86v-4.523c-1.002 3.277-3.15 4.916-6.447 4.916-4.587 0-6.88-2.714-6.88-8.141V9.478h5.022v11.249c0 2.595 1.239 3.893 3.717 3.893 1.424 0 2.544-.498 3.362-1.494.817-1.023 1.226-2.504 1.226-4.445V9.479zM90.648 29.143c-2.399 0-4.35-.537-5.853-1.612-1.502-1.075-2.386-2.439-2.65-4.09l4.707-1.299c.158 1.207.553 2.046 1.186 2.518.66.445 1.635.668 2.927.668 2.109 0 3.164-.655 3.164-1.966 0-.603-.198-1.062-.594-1.377-.395-.314-1.147-.563-2.254-.747l-3.243-.511c-1.74-.289-3.098-.918-4.073-1.888-.95-.97-1.424-2.268-1.424-3.894 0-1.835.686-3.264 2.057-4.287 1.37-1.048 3.269-1.573 5.695-1.573 4.824 0 7.58 1.862 8.265 5.585l-4.43 1.062c-.131-1.18-.46-1.98-.988-2.4-.527-.419-1.424-.629-2.69-.629-1.898 0-2.847.669-2.847 2.006 0 .577.172 1.023.514 1.337.37.315 1.002.538 1.899.67l3.954.589c1.635.21 2.9.8 3.797 1.77.923.944 1.384 2.19 1.384 3.736 0 1.993-.751 3.553-2.254 4.68-1.503 1.102-3.586 1.652-6.249 1.652zM107.509 5.427c-.554.551-1.358.826-2.413.826-1.054 0-1.872-.275-2.452-.826-.553-.55-.83-1.337-.83-2.36 0-2.044 1.094-3.067 3.282-3.067 1.055 0 1.859.275 2.413.826.58.524.87 1.272.87 2.242 0 1.022-.29 1.809-.87 2.36zm-4.904 23.323V9.478h5.022V28.75h-5.022zM124.1 9.085c4.614 0 6.921 2.714 6.921 8.141V28.75h-5.022V17.502c0-2.596-1.253-3.894-3.757-3.894-1.424 0-2.545.511-3.362 1.534-.791.996-1.186 2.465-1.186 4.405v9.203h-5.023V9.478h5.023v4.484c1.001-3.251 3.137-4.877 6.406-4.877zM153.467 18.839c0 .708-.013 1.324-.039 1.848h-13.763c.158 1.6.606 2.766 1.345 3.5.764.709 1.911 1.063 3.44 1.063 1.134 0 2.004-.197 2.61-.59.607-.394 1.147-1.102 1.622-2.124l4.35 1.573c-1.318 3.356-4.218 5.034-8.7 5.034-2.98 0-5.379-.904-7.198-2.714-1.793-1.809-2.689-4.208-2.689-7.197 0-3.015.896-5.454 2.689-7.315 1.819-1.888 4.166-2.832 7.039-2.832 2.795 0 5.036.892 6.724 2.674 1.713 1.757 2.57 4.117 2.57 7.08zm-9.254-5.978c-1.397 0-2.465.354-3.203 1.062-.712.681-1.161 1.796-1.345 3.343h8.819c-.026-1.6-.382-2.727-1.068-3.383-.685-.681-1.753-1.022-3.203-1.022zM163.857 29.143c-2.399 0-4.35-.537-5.853-1.612-1.503-1.075-2.386-2.439-2.65-4.09l4.706-1.299c.158 1.207.554 2.046 1.187 2.518.659.445 1.634.668 2.926.668 2.109 0 3.164-.655 3.164-1.966 0-.603-.198-1.062-.593-1.377-.396-.314-1.147-.563-2.254-.747l-3.243-.511c-1.74-.289-3.098-.918-4.074-1.888-.949-.97-1.424-2.268-1.424-3.894 0-1.835.686-3.264 2.057-4.287 1.371-1.048 3.269-1.573 5.695-1.573 4.825 0 7.58 1.862 8.265 5.585l-4.429 1.062c-.132-1.18-.461-1.98-.989-2.4-.527-.419-1.423-.629-2.689-.629-1.898 0-2.847.669-2.847 2.006 0 .577.171 1.023.514 1.337.369.315 1.002.538 1.898.67l3.955.589c1.634.21 2.9.8 3.796 1.77.923.944 1.385 2.19 1.385 3.736 0 1.993-.752 3.553-2.255 4.68-1.502 1.102-3.585 1.652-6.248 1.652zM182.497 29.143c-2.399 0-4.35-.537-5.853-1.612-1.503-1.075-2.386-2.439-2.65-4.09l4.706-1.299c.158 1.207.554 2.046 1.187 2.518.659.445 1.634.668 2.926.668 2.109 0 3.164-.655 3.164-1.966 0-.603-.198-1.062-.593-1.377-.396-.314-1.147-.563-2.254-.747l-3.243-.511c-1.74-.289-3.098-.918-4.074-1.888-.949-.97-1.423-2.268-1.423-3.894 0-1.835.685-3.264 2.056-4.287 1.371-1.048 3.269-1.573 5.695-1.573 4.825 0 7.58 1.862 8.265 5.585l-4.429 1.062c-.132-1.18-.461-1.98-.989-2.4-.527-.419-1.423-.629-2.689-.629-1.898 0-2.847.669-2.847 2.006 0 .577.171 1.023.514 1.337.369.315 1.002.538 1.898.67l3.955.589c1.634.21 2.9.8 3.796 1.77.923.944 1.385 2.19 1.385 3.736 0 1.993-.752 3.553-2.255 4.68-1.502 1.102-3.585 1.652-6.248 1.652z"/></svg><svg viewBox="0 0 73 72" id="offer-icon" xmlns="http://www.w3.org/2000/svg"><path fill="#9CE861" d="M31.5 31h10v10h-10z"/><circle cx="36.5" cy="36" r="35.5" stroke="#9CE861"/></svg><svg fill="none" viewBox="0 0 72 72" id="offer-icon1" xmlns="http://www.w3.org/2000/svg"><g clip-path="url(#eclip0_1241_13141)"><path fill-rule="evenodd" clip-rule="evenodd" d="M61.038 1.01a.763.763 0 011.306.541v8.101h8.104a.766.766 0 01.542 1.306l-7.21 7.208.34.54a34.085 34.085 0 015.232 18.208c0 18.893-15.372 34.266-34.266 34.266S.82 55.807.82 36.914C.82 18.02 16.194 2.647 35.086 2.648a34.08 34.08 0 0118.204 5.23l.54.34 7.208-7.207zm6.784 35.903v-.577l-.006-.002a32.561 32.561 0 00-4.612-16.185l-.526-.881-5.259 5.257a.763.763 0 01-.54.223h-4.802l.752 1.22a20.892 20.892 0 013.12 10.945c0 11.504-9.36 20.866-20.863 20.866-11.505 0-20.866-9.362-20.866-20.866 0-11.505 9.36-20.867 20.866-20.867h.002c3.879 0 7.664 1.102 10.939 3.12l1.22.75v-4.799c0-.203.08-.397.223-.54l5.257-5.258-.88-.526a32.56 32.56 0 00-16.76-4.616C17.035 4.177 2.35 18.861 2.35 36.913s14.685 32.736 32.736 32.736c18.05 0 32.735-14.684 32.735-32.736zM47.246 23.729l-7.433 7.374-.547-.372a7.469 7.469 0 00-5.614-1.146c-.968.19-1.87.566-2.666 1.092a7.466 7.466 0 00-3.366 6.236c0 4.115 3.35 7.466 7.466 7.466 4.115 0 7.465-3.35 7.465-7.466a7.418 7.418 0 00-1.284-4.181l-.372-.548 7.436-7.435H50.1l.24.309a19.343 19.343 0 014.08 11.855c0 10.664-8.671 19.337-19.333 19.337-10.663 0-19.336-8.674-19.336-19.337s8.673-19.337 19.336-19.337h.002c4.301 0 8.472 1.454 11.85 4.079l.309.24v1.834zm-12.16 19.12a5.944 5.944 0 005.61-3.997c.804-2.352.2-3.946-.842-5.627l-4.23 4.23a.76.76 0 01-.54.223.764.764 0 01-.54-1.306l4.229-4.23-.972-.502a5.898 5.898 0 00-2.715-.663 5.942 5.942 0 00-5.936 5.936 5.942 5.942 0 005.936 5.936zm21.476-19.632l5.66-5.657.005-.006.001-.002.005-.005.01-.01.014-.013 6.344-6.343h-7.023a.766.766 0 01-.765-.765V3.398l-6.332 6.33-.007.008-.016.016-.01.011-.006.006-.011.01-5.655 5.655v7.783h7.786z" fill="#9CE861"/></g><defs><clipPath id="eclip0_1241_13141"><path fill="#fff" d="M0 0h72v72H0z"/></clipPath></defs></svg><svg fill="none" viewBox="0 0 72 72" id="offer-icon2" xmlns="http://www.w3.org/2000/svg"><g clip-path="url(#fclip0_1215_23625)"><mask id="fa" fill="#fff"><path d="M70.924 30.982l-7.613-.979c-.76-3.262-1.957-6.308-3.806-9.135l4.568-5.98c.326-.544.326-1.197-.109-1.632L58.527 7.82c-.435-.435-.979-.435-1.414-.109l-6.09 4.676c-2.827-1.74-5.872-3.045-9.135-3.806L40.91.968c-.109-.544-.544-.979-1.087-.979h-7.83c-.544 0-.978.435-1.087.979l-.979 7.612c-3.262.761-6.307 1.957-9.134 3.806L14.81 7.71c-.435-.326-1.088-.326-1.414.109L7.85 13.365c-.435.434-.435.978-.11 1.413l4.677 6.09c-1.74 2.827-3.045 5.872-3.807 9.135L1 30.98c-.544.11-.978.544-.978 1.088v7.83c0 .543.434.978.978 1.087l7.612.978c.762 3.263 1.958 6.308 3.807 9.135l-4.676 6.09c-.326.435-.326 1.088.11 1.414l5.545 5.547c.435.434.979.434 1.414.108l6.09-4.675c2.827 1.74 5.872 3.044 9.134 3.806L31.014 71c.109.544.544.979 1.087.979h7.83c.544 0 .978-.435 1.087-.979l.979-7.612c3.262-.762 6.307-1.958 9.134-3.806l5.981 4.567c.218.109.544.218.762.218.326 0 .652-.109.87-.326l5.437-5.438c.435-.434.435-.978.109-1.413l-4.676-6.09c1.74-2.827 3.045-5.872 3.806-9.135l7.613-.978c.543-.11.978-.544.978-1.088v-7.83a1.396 1.396 0 00-1.087-1.089zm-1.196 7.938l-7.395.978c-.435.11-.87.435-.979.87-.652 3.48-2.066 6.743-4.023 9.679-.218.435-.218.87 0 1.305l4.567 5.872-4.132 4.35-5.872-4.567c-.326-.326-.87-.326-1.305 0-2.936 1.957-6.199 3.371-9.679 4.023-.434.11-.761.435-.87.979l-1.088 7.286h-5.98l-.98-7.394c-.108-.435-.434-.87-.87-.979-3.48-.653-6.742-2.066-9.678-4.023a1.385 1.385 0 00-1.305 0l-5.872 4.675-4.241-4.24 4.459-5.873a1.144 1.144 0 000-1.414c-1.958-2.936-3.263-6.09-3.915-9.57-.11-.434-.435-.76-.98-.87L2.306 38.92v-5.981L9.7 31.96c.435-.108.87-.434.978-.87.653-3.48 2.067-6.742 4.024-9.678.217-.435.217-.87 0-1.305l-4.676-5.873 4.24-4.24 5.873 4.458c.218.218.435.218.761.218.218 0 .544-.11.653-.218 2.936-1.957 6.09-3.262 9.57-3.915.434-.109.76-.435.87-.978l1.087-7.286h5.981l.979 7.394c.109.435.435.87.87.979 3.48.652 6.742 2.066 9.678 4.023.435.218.87.218 1.305 0l5.872-4.567 4.241 4.24-4.567 5.873c-.326.326-.326.87 0 1.305 1.957 2.936 3.371 6.198 4.023 9.678.11.435.435.761.979.87l7.394.979.002 5.873h-.11z"/></mask><path d="M70.924 30.982l-7.613-.979c-.76-3.262-1.957-6.308-3.806-9.135l4.568-5.98c.326-.544.326-1.197-.109-1.632L58.527 7.82c-.435-.435-.979-.435-1.414-.109l-6.09 4.676c-2.827-1.74-5.872-3.045-9.135-3.806L40.91.968c-.109-.544-.544-.979-1.087-.979h-7.83c-.544 0-.978.435-1.087.979l-.979 7.612c-3.262.761-6.307 1.957-9.134 3.806L14.81 7.71c-.435-.326-1.088-.326-1.414.109L7.85 13.365c-.435.434-.435.978-.11 1.413l4.677 6.09c-1.74 2.827-3.045 5.872-3.807 9.135L1 30.98c-.544.11-.978.544-.978 1.088v7.83c0 .543.434.978.978 1.087l7.612.978c.762 3.263 1.958 6.308 3.807 9.135l-4.676 6.09c-.326.435-.326 1.088.11 1.414l5.545 5.547c.435.434.979.434 1.414.108l6.09-4.675c2.827 1.74 5.872 3.044 9.134 3.806L31.014 71c.109.544.544.979 1.087.979h7.83c.544 0 .978-.435 1.087-.979l.979-7.612c3.262-.762 6.307-1.958 9.134-3.806l5.981 4.567c.218.109.544.218.762.218.326 0 .652-.109.87-.326l5.437-5.438c.435-.434.435-.978.109-1.413l-4.676-6.09c1.74-2.827 3.045-5.872 3.806-9.135l7.613-.978c.543-.11.978-.544.978-1.088v-7.83a1.396 1.396 0 00-1.087-1.089h0zm-1.196 7.938l-7.395.978c-.435.11-.87.435-.979.87-.652 3.48-2.066 6.743-4.023 9.679-.218.435-.218.87 0 1.305l4.567 5.872-4.132 4.35-5.872-4.567c-.326-.326-.87-.326-1.305 0-2.936 1.957-6.199 3.371-9.679 4.023-.434.11-.761.435-.87.979l-1.088 7.286h-5.98l-.98-7.394c-.108-.435-.434-.87-.87-.979-3.48-.653-6.742-2.066-9.678-4.023a1.385 1.385 0 00-1.305 0l-5.872 4.675-4.241-4.24 4.459-5.873a1.144 1.144 0 000-1.414c-1.958-2.936-3.263-6.09-3.915-9.57-.11-.434-.435-.76-.98-.87L2.306 38.92v-5.981L9.7 31.96c.435-.108.87-.434.978-.87.653-3.48 2.067-6.742 4.024-9.678.217-.435.217-.87 0-1.305l-4.676-5.873 4.24-4.24 5.873 4.458c.218.218.435.218.761.218.218 0 .544-.11.653-.218 2.936-1.957 6.09-3.262 9.57-3.915.434-.109.76-.435.87-.978l1.087-7.286h5.981l.979 7.394c.109.435.435.87.87.979 3.48.652 6.742 2.066 9.678 4.023.435.218.87.218 1.305 0l5.872-4.567 4.241 4.24-4.567 5.873c-.326.326-.326.87 0 1.305 1.957 2.936 3.371 6.198 4.023 9.678.11.435.435.761.979.87l7.394.979.002 5.873h-.11z" fill="#9CE861" stroke="#080708" stroke-width=".6" mask="url(#fa)"/><path d="M16.05 35.984c0-11.01 8.958-19.968 19.967-19.968 11.01 0 19.968 8.959 19.968 19.968S47.026 55.95 36.017 55.95 16.05 46.993 16.05 35.984zm1.874 0c0 9.978 8.114 18.093 18.093 18.093S54.11 45.962 54.11 35.984c0-9.979-8.114-18.093-18.093-18.093-9.978 0-18.093 8.114-18.093 18.093z" fill="#9CE861" stroke="#080708" stroke-width=".3"/><path d="M36.017 38.594c-.544 0-.979.218-1.305.544a1.801 1.801 0 00-.544 1.305c0 .544.218.978.544 1.305.326.326.761.544 1.305.544.543 0 .978-.218 1.305-.544.326-.326.543-.761.543-1.305 0-.544-.217-.979-.543-1.305a1.8 1.8 0 00-1.305-.544zM34.168 30.111l.653 7.503h2.392l.652-7.503v-2.61h-3.697v2.61z" fill="#9CE861"/></g><defs><clipPath id="fclip0_1215_23625"><path fill="#fff" d="M0 0h72v72H0z"/></clipPath></defs></svg><svg fill="none" viewBox="0 0 64 72" id="offer-icon3" xmlns="http://www.w3.org/2000/svg"><path fill-rule="evenodd" clip-rule="evenodd" d="M30.562 8.812C13.772 9.564.39 23.414.39 40.39.39 57.848 14.542 72 32 72c17.457 0 31.61-14.152 31.61-31.61 0-9.013-3.772-17.144-9.824-22.903-.32.603-.69 1.177-1.102 1.716 5.507 5.377 8.925 12.883 8.925 21.187C61.61 56.743 48.353 70 32 70 15.648 70 2.39 56.743 2.39 40.39c0-15.772 12.333-28.665 27.88-29.56.044-.69.143-1.363.293-2.018z" fill="#9CE861"/><path d="M31.215 23.252a.844.844 0 001.134.36 26.44 26.44 0 005.16-3.539 8.953 8.953 0 006.294 1.277 8.987 8.987 0 005.538-3.27 9.09 9.09 0 001.961-6.151L50.252.767a.847.847 0 00-.396-.641.837.837 0 00-.747-.068L38.639 4.15a8.99 8.99 0 00-4.26 3.958 9.07 9.07 0 00-.963 5.752 9.04 9.04 0 002.737 5.143 24.8 24.8 0 01-4.579 3.106.847.847 0 00-.36 1.142zm4.773-7.131a7.405 7.405 0 01-.646-5.941 7.35 7.35 0 013.945-4.467l9.394-3.671.944 10.01a7.376 7.376 0 01-1.511 4.874 7.297 7.297 0 01-4.305 2.706 7.261 7.261 0 01-5.017-.771c1.96-1.93 3.6-4.165 4.857-6.618a.852.852 0 00-.358-1.145.838.838 0 00-1.136.366 24.074 24.074 0 01-4.754 6.395 7.354 7.354 0 01-1.413-1.739z" fill="#9CE861"/><path d="M33.305 57.84v-3.655c2.343-.332 4.462-1.218 6.023-2.658 2.23-2.105 3.012-5.539 1.673-7.976-.892-1.883-3.012-4.098-7.697-4.542v-10.3c2.12.442 4.685 1.993 4.685 4.32h2.789c0-3.767-3.681-6.426-7.363-7.09h-.11V21.95h-2.79v3.877c-2.677.111-5.131 1.108-6.804 2.88-2.23 2.216-2.9 5.539-1.561 7.976 1.561 2.99 5.019 4.43 7.697 4.763.11 0 .445 0 .669.11v9.969c-.224 0-.335 0-.558-.11-1.896-.333-5.02-1.883-5.02-4.431H22.15c0 3.766 3.68 6.535 7.25 7.2.334.11.669.11 1.004.11v3.656h2.9l.001-.11zm5.132-13.181c.669 1.44.223 3.434-1.116 4.763-1.004.996-2.454 1.66-4.016 1.883v-9.637c2.008.332 4.239 1.108 5.132 2.99zm-8.366-6.093c-2.008-.222-4.574-1.218-5.578-3.212-.781-1.44-.223-3.433 1.116-4.762 1.227-1.219 3.012-1.883 4.908-1.994v10.08c-.224-.112-.335-.112-.446-.112z" fill="#9CE861"/></svg></svg>